<?xml version="1.0" encoding="utf-8"?>
<!-- Generator: Adobe Illustrator 25.0.0, SVG Export Plug-In . SVG Version: 6.00 Build 0)  -->
<svg version="1.1" id="Capa_2_1_" xmlns="http://www.w3.org/2000/svg" xmlns:xlink="http://www.w3.org/1999/xlink" x="0px" y="0px"
	 viewBox="0 0 874.3 191.6" style="enable-background:new 0 0 874.3 191.6;" xml:space="preserve">
<style type="text/css">
	.st0{fill:#00CFFF;}
</style>
<g>
	<g>
		<path class="st0" d="M841.7,24.5l-59.1,77.2l-3.8,23.2c-0.5,3.1,2.7,5.6,5.5,4.2l21.4-9.7l58.9-77.1
			C851.4,43.4,844.4,40.5,841.7,24.5z"/>
		<path class="st0" d="M865,32.9l-14.4-11c-2.3-1.7-5.5-1.4-7.4,0.8c2.3,10.7,12,18.3,23,17.9C867.9,38.1,867.3,34.8,865,32.9z"/>
	</g>
	<g>
		<path d="M77.2,178c-3.8,0-7.6-0.8-11.3-2.7c-12.3-6.5-18.3-24.1-17.8-52.3c0.2-11.6,1.9-23.4,4.9-34.7
			c-23.2,11.5-39.3,12.4-40.4,12.4c-2.9,0.1-5.4-2.1-5.5-5.1c-0.1-2.9,2.1-5.4,5-5.5c0.4,0,19.5-1.3,45.6-16.7
			c0.5-1.4,1.1-2.8,1.7-4.2c7.4-17.5,18.4-33,31.6-45c5.3-4.8,11.6-10.2,18.6-12.6c2.6-0.9,9.1-2.6,13.4,1.2
			c1.4,1.2,3.7,4.1,2.6,9.2c-1,4.7-4.2,8.7-6.8,11.9c-0.3,0.3-0.6,0.7-0.8,1c-5.5,6.9-11.8,13.1-17.2,18.4
			C88.9,65.2,77.2,74.1,66.5,80.7c-4.8,13.4-7.5,27.8-7.8,42.4c-0.6,29.7,6.3,39.6,12.1,42.7c8.9,4.8,21.3-3.1,22.9-4.2
			c2-1.7,18.5-16.4,29.3-36c1.4-2.6,4.7-3.5,7.2-2.1c2.6,1.4,3.5,4.7,2.1,7.2c-12.4,22.6-31.1,38.6-31.9,39.3l-0.4,0.3
			C99.4,170.6,88.9,178,77.2,178z M114.9,21.2c-0.5,0.1-1.1,0.2-1.7,0.4c-5.1,1.7-10.4,6.3-14.9,10.4C89.1,40.4,81.2,50.5,75,61.8
			c6-4.6,12.3-9.9,18.7-16.2c6.4-6.3,11.7-11.6,16.3-17.4c0.3-0.3,0.6-0.7,0.9-1.1C112.1,25.5,114,23.2,114.9,21.2z"/>
	</g>
	<g>
		<path d="M134.1,183.2c-1.8,0-3.7-0.3-5.6-0.9c-5.9-2-10.5-7.4-12.4-14.3c-2.5-9.3-1.6-21.1,2.8-35c0.9-2.8,3.9-4.3,6.7-3.5
			s4.3,3.9,3.5,6.7c-3.8,12-4.7,21.7-2.7,29c0.8,2.8,2.6,6.1,5.6,7.1c3,1,7-0.2,12.5-3.7c47.8-30.9,66-93.9,72.7-128.7
			c0.5-2.9,3.3-4.8,6.2-4.2c2.9,0.5,4.8,3.3,4.2,6.2c-7,36.5-26.3,102.6-77.4,135.6C147.7,179.1,141.3,183.2,134.1,183.2z"/>
	</g>
	<g>
		<path d="M405.3,179.5c-10.6,0-16.2-5.9-18.8-9.8c-0.2-0.4-0.5-0.8-0.7-1.2c-2.4,1-4.8,1.6-7.3,1.6c-5.2,0.2-10-2-13.9-6.3
			c-3.7-4.1-6.4-9-8.3-13.8c-6.6,9.7-16.7,21.7-27.9,24.6c-11.5,3-18.6,0-22.5-3c-5.4-4.2-8.4-11.1-8.3-19.5c0-2.9,2.4-5.3,5.3-5.3
			l0,0c2.9,0,5.3,2.4,5.3,5.3c0,5,1.5,8.9,4.2,11c3.7,2.9,9.3,2.2,13.3,1.1c10.2-2.7,21.3-18.8,26.7-28.2c-0.6-3.3-0.9-6-1-7.6
			c-1.4-18.9,4-40.6,14.9-59.5c0.9-1.5,4-6.1,7.3-10.2c5.7-6.9,9.9-9.5,14-9c1.5,0.2,5.1,1.3,6.3,6.4c1.4,5.7-1.3,12.6-3.5,18.1
			c-0.4,1.1-0.8,2.2-1.2,3c-7.5,21.7-16.1,41.8-25.4,59.9c-0.1,0.2-0.2,0.4-0.3,0.6c1.6,6.9,4.5,14,8.8,18.8
			c2.4,2.6,4.4,2.8,5.8,2.8c1.3,0,2.7-0.4,4.3-1.1c-1.5-10.2,1.1-22.3,7.4-31c3.5-4.9,8.2-8.2,13.4-9.5c1.1-0.3,2.8-0.6,4.6-0.2
			c4,0.8,6.8,3,8.1,6.5c3.6,9.9-9.2,26.3-10.7,28.1c-2.9,3.6-6.4,7.4-10.4,10.7c0.2,0.3,0.4,0.7,0.6,1c2.8,4.3,7.7,5.8,14.4,4.5
			c2.9-0.6,5.7,1.3,6.3,4.2c0.6,2.9-1.3,5.7-4.2,6.3C409.6,179.3,407.4,179.5,405.3,179.5z M406.1,128.2c-0.1,0-0.2,0-0.3,0.1
			c-2.6,0.6-5.2,2.5-7.2,5.3c-3.4,4.8-5.4,11-5.8,16.9c1.4-1.5,2.8-3.1,4.3-4.9C401.9,139.6,406.3,131,406.1,128.2z M382.8,64.7
			c-2.8,3.2-5.8,7.4-7.1,9.7c-7.7,13.3-12.4,28.5-13.5,42.5c6.2-13.4,11.9-27.8,17.2-42.9c0.4-1,0.8-2.2,1.3-3.4
			C381.2,69,382.1,66.9,382.8,64.7z"/>
	</g>
	<g>
		<path d="M320.1,92.5c-2.3,0-4.4-1.5-5.1-3.8c-0.8-2.8,0.8-5.8,3.6-6.6c2.5-0.7,60.5-17.4,102.2-2.8c2.8,1,4.2,4,3.3,6.8
			s-4,4.2-6.8,3.3c-38.4-13.5-95.1,2.8-95.7,3C321.1,92.5,320.6,92.5,320.1,92.5z"/>
	</g>
	<g>
		<g>
			<path d="M428.8,178.7c-0.2,0-0.3,0-0.5,0c-3.1-0.3-5.4-3.1-5-6.3c4.6-43.4,21.2-112.5,28.3-141.9c1.4-5.8,2.6-10.8,2.8-11.9
				c0.3-2.9,2.8-5.1,5.8-5c3.1,0.1,5.6,2.7,5.6,5.8c0,1.1-0.1,1.4-3.1,13.9c-7,29.3-23.5,97.9-27.9,140.5
				C434.2,176.5,431.7,178.7,428.8,178.7z M454.2,18.6c0,0.2,0,0.3,0,0.4C454.2,18.9,454.2,18.7,454.2,18.6z"/>
		</g>
	</g>
	<g>
		<path d="M455.3,176.3c-8.1-0.2-15.7-1-21.6-1.6c-3.1-0.4-5.4-3.1-5-6.3c0.4-3.1,3.1-5.4,6.3-5c22.9,2.6,46,3.3,59.7-8.7
			c6.4-5.6,10.5-14.5,10.9-24.3c0.7-15.1-6-29.4-18-39.1c-11.1,5.2-24.4,5.6-35.8,2.7c-1.1-0.2-4.3-1-5.9-4.2
			c-1.2-2.3-0.9-4.5-0.8-5.3c1.1-7.7,5.6-11.2,9-12.9c10.9-4.9,27.2,2.1,33.8,6c2.5-2,4.8-4.4,6.5-7.5c4.7-8,5.4-17.4,1.8-26
			c-3.9-9.5-12.1-16.8-22-19.6c-26.3-7.5-64-9.7-90.5,6.4c-2.7,1.7-6.2,0.7-7.8-2c-1.7-2.7-0.7-6.2,2-7.8
			c29.7-17.9,70.9-15.6,99.5-7.6c13.3,3.8,24.4,13.5,29.5,26.3c4.8,11.9,3.9,25-2.5,36c-2,3.4-4.3,6.2-7,8.6
			c13,11.8,20.3,28.8,19.5,46.2c-0.6,12.9-5.9,24.7-14.8,32.4C489.4,174.4,471.1,176.6,455.3,176.3z M457.1,83.6
			c5.4,1.1,11.3,1.2,16.9,0.2c-5.7-2-11.9-3.2-15.3-1.7C458.3,82.3,457.6,82.7,457.1,83.6z"/>
	</g>
	<g>
		<path d="M531.8,167.4c-2,0-4-0.4-5.9-1.2c-5.3-2.1-9.2-6.8-10.8-12.9c-1.5-5.6-1.1-12.1,1.4-18.2c2.4-6.1,6.4-11.2,11.4-14.3
			c5.4-3.4,11.5-4.2,16.7-2.1c10.6,4.1,14.8,17.8,9.6,31.2l0,0C549.8,160.8,540.8,167.6,531.8,167.4z M538.5,128.2
			c-2.1,0-4,0.9-5.1,1.6c-3,1.9-5.6,5.2-7.2,9.2c-1.6,3.9-1.9,8.2-0.9,11.6c0.5,1.7,1.6,4.7,4.5,5.8c4.9,1.9,11.5-2.8,14.4-10.3l0,0
			c2.9-7.5,1.3-15.5-3.6-17.4C539.9,128.4,539.2,128.2,538.5,128.2z M549.2,147.9L549.2,147.9L549.2,147.9z"/>
	</g>
	<g>
		<path d="M576.9,166.1c-2,0-3.9-0.4-5.8-1.1c-5.3-2.1-9.2-6.8-10.8-12.9c-1.5-5.6-1.1-12.1,1.4-18.2c5.3-13.3,17.6-20.5,28.2-16.3
			c10.6,4.1,14.8,17.8,9.6,31.2l0,0c-2.4,6.1-6.4,11.2-11.4,14.3C584.3,165.1,580.5,166.2,576.9,166.1z M583.7,126.9
			c-4.5-0.1-9.7,4.3-12.2,10.8c-1.6,3.9-1.9,8.2-0.9,11.6c0.5,1.7,1.6,4.7,4.5,5.8c2.9,1.1,5.8-0.3,7.2-1.2c3-1.9,5.6-5.2,7.2-9.2
			c2.9-7.5,1.3-15.5-3.6-17.4C585.2,127,584.5,126.9,583.7,126.9z M594.4,146.7L594.4,146.7L594.4,146.7z"/>
	</g>
	<g>
		<path d="M692.1,168.8c-2.6-0.1-5.1-0.5-7.7-1.6c-6.3-2.4-11.1-7.5-13.4-14.4c-2.3-6.5-2-13.8,0.6-20.6c2.6-6.7,7.4-12.4,13.6-15.5
			c6.4-3.4,13.3-3.8,19.6-1.4c12.7,5,18.4,20.7,12.7,35l0,0C713.1,161.9,702.6,169,692.1,168.8z M696.9,124.4
			c-2.2,0-4.5,0.5-6.7,1.7c-3.8,2-6.9,5.7-8.7,10c-1.8,4.5-1.9,9.2-0.5,13.3c1.3,3.8,3.9,6.7,7.2,7.9c7.1,2.8,15.8-2.1,19.4-10.9
			l0,0c3.5-8.8,0.5-18.4-6.8-21.2C699.6,124.7,698.3,124.5,696.9,124.4z M712.7,148.4L712.7,148.4L712.7,148.4z"/>
	</g>
	<g>
		<path d="M544.7,145.9c-10.1-0.2-15.9-5.3-19.3-10.7c0-0.1-0.1-0.1-0.1-0.2c-1.7-2.1-1.4-5.2,0.6-7.2c2.1-2,5.5-1.8,7.5,0.3
			c0.4,0.5,0.7,0.9,1,1.4c4.6,7.4,14.7,7.5,29.9,0.3c2.6-1.2,5.8-0.1,7.1,2.5c1.2,2.6,0.1,5.8-2.5,7.1
			C558.8,144.2,550.9,146,544.7,145.9z M525.6,135.4L525.6,135.4L525.6,135.4z"/>
	</g>
	<g>
		<path d="M607.2,160.9c-1.7,0-2.9-0.3-3.5-0.3c-3.4-0.4-6.3-2-8-4.9c-4.8-7.4-0.4-20.5,1-24.3c1.1-2.8,4.1-4.1,6.9-3.1
			c2.8,1.1,4.1,4.1,3.1,6.9l0,0c-2.4,6.5-3.1,13.3-2.1,14.9c0,0,0.1,0,0.2,0l0.4,0l0.4,0.1l0,0c0,0,4.8,0.9,10.2-1.7
			c7.4-3.5,12.9-11.7,16-24c0.8-2.9,3.6-4.5,6.5-3.9c2.9,0.8,4.5,3.6,3.9,6.5c-5.1,20-15.1,28.1-22.6,31.4
			C614.6,160.5,610.2,160.9,607.2,160.9z"/>
	</g>
	<g>
		<path d="M636.7,137.2c-2.6-0.1-4.9-2-5.2-4.7c-0.3-2.9,1.8-5.6,4.7-5.9l15.9-1.8c2.9-0.3,5.6,1.8,5.9,4.7s-1.8,5.6-4.7,5.9
			l-15.9,1.8C637.2,137.2,637,137.2,636.7,137.2z"/>
	</g>
	<g>
		<path d="M661.8,162.4c-1.7,0-3.4-0.3-5.3-0.6c-4.6-1-8.2-3.6-10.6-7.5c-5.6-9.5-1.6-23.7-1.1-25.3c0.9-2.8,3.8-4.4,6.6-3.6
			c2.8,0.9,4.4,3.8,3.6,6.6c-0.9,2.9-2.6,12.3,0.1,16.9c0.8,1.4,2,2.1,3.7,2.6c3.3,0.8,5.8,0.5,7.4-0.7c2-1.4,2.5-4,2.5-4l0,0.1
			l10.6,1.4c-0.1,0.7-1.1,7.1-6.8,11.1C669.4,161.4,665.8,162.4,661.8,162.4z"/>
	</g>
	<g>
		<path d="M723.6,164.2c-7.7-0.2-11.6-3.5-13.7-6.7c-1.4-2.1-1.5-5-1.5-10.6c0-0.6,0-1.1,0-1.6c-0.1-2.3,1-4.6,2.7-6.1
			c0.2-0.2,0.5-0.5,0.8-0.8c-2.3-0.8-3.7-3.2-3.5-5.7c4.5-36.5,20.2-64.9,45.2-82.1c13.3-9.1,20.7-6.8,24.7-3.1
			c7.2,6.5,5,20.1-0.7,30.2c-6.9,12.1-16.2,22.5-25.3,32.5l-2.8,3.1c-9.2,10.3-25,27.7-30.6,33.1c0,0.2,0,0.4,0,0.6
			c0,1.2,0,4,0.1,5.2c1.7,1.7,5.7,1.4,7.4,1.2c17.2-2.1,30.8-14.9,37.4-22.5c1.9-2.2,5.2-2.4,7.5-0.5s2.4,5.2,0.5,7.5
			c-7.6,8.7-23.5,23.5-44.2,26C726.3,164.1,724.9,164.2,723.6,164.2z M719.3,152.6L719.3,152.6L719.3,152.6z M769.9,54.9
			c-1.8,0-5.2,1-10.2,4.5c-27,18.5-36.8,48.2-40.2,71.1c5.4-5.8,13.1-14.2,22.2-24.4l2.9-3.1c8.7-9.6,17.6-19.7,24-30.6
			c4.5-7.7,4.5-15.4,2.7-17C770.9,55.1,770.5,54.9,769.9,54.9z"/>
	</g>
	<circle cx="310.5" cy="130.8" r="8.6"/>
	<g>
		<path d="M207,184c-0.3,0-0.5,0-0.8-0.1c-2.7-0.4-4.6-3-4.1-5.7c1.3-8.1,2.9-16.3,4.8-24.5c-4.1,3.7-8.3,7.3-12.7,10.8
			c-2.2,1.7-5.3,1.4-7-0.8c-1.7-2.2-1.4-5.3,0.8-7c8.4-6.7,16.3-13.8,23.5-21.2c4.3-15.5,9.3-30.5,15.1-44.2
			c13.8-33.1,30.6-58.4,50.1-75.2c1-0.8,2.8-2.4,5.4-2.7c4.5-0.6,8.7,2.9,9.4,7.7c0.5,3.3-0.7,6.2-1.4,8.1
			c-12.7,32.1-34.5,74.9-69.6,111.4c-3.6,13.5-6.4,26.8-8.5,39.3C211.5,182.3,209.4,184,207,184z M280.5,26
			c-23.6,21.8-41.3,56.3-53.2,91.8C253,86.5,269.9,52.6,280.5,26z"/>
	</g>
	<g>
		<path d="M273.9,182.2c-5.6,0-12.1-1.4-16.4-5.6c-3.4-3.3-5-8.2-4.6-14.8c0.2-4.2,1.2-8.3,2.2-12.2c1.1-4.5,2.2-8.7,1.9-12.7
			c-0.5-6.7-1.3-8-10.3-9c-7.5-0.8-15.1,5.7-21.9,11.4c-0.7,0.6-1.4,1.2-2.1,1.8c-2.1,1.8-5.3,1.5-7-0.6c-1.8-2.1-1.5-5.3,0.6-7
			c0.7-0.6,1.4-1.1,2.1-1.7c7.9-6.7,17.7-15,29.5-13.7c11.4,1.3,18.2,4.7,19.2,18.2c0.4,5.6-0.9,10.8-2.1,15.8
			c-0.9,3.6-1.7,7-1.9,10.3c-0.2,3.6,0.4,6,1.6,7.2c2.5,2.4,8.3,3.1,12.4,2.5c9.3-1.3,14.3-9.3,19.7-17.7c0.8-1.2,1.5-2.4,2.3-3.6
			c1.5-2.3,4.6-3,6.9-1.4c2.3,1.5,3,4.6,1.4,6.9c-0.8,1.1-1.5,2.3-2.2,3.5c-6,9.5-12.9,20.3-26.7,22.2
			C276.9,182.1,275.4,182.2,273.9,182.2z"/>
	</g>
</g>
</svg>
